PathFileType	4	(X/Y/Z)	D:\TRACE\v60_Jaco2_6-2-23\BothDRS_Motion1_10-v60.trc
DataRate	CameraRate	NumFrames	NumMarkers	Units	OrigDataRate	OrigDataStartFrame	OrigNumFrames
100.00	100.00	      21	9	mm	100.00	1	      7500
Frame#	Time	front left toe			Front right toe			aft left toe			aft right toe			Arm			FL body			FR body			AL Body			AR Body			
		X1	Y1	Z1	X2	Y2	Z2	X3	Y3	Z3	X4	Y4	Z4	X5	Y5	Z5	X6	Y6	Z6	X7	Y7	Z7	X8	Y8	Z8	X9	Y9	Z9	

1	0.000	-144.02795	19.63977	-279.56927	270.11569	18.54806	-322.88754	-104.14253	14.28619	336.32443	285.99329	17.25443	311.12122	72.09582	1212.14087	-331.34131	-23.99788	582.91058	-430.80038	136.11711	582.79688	-441.05569	35.26723	586.69659	513.48035	193.34117	581.48529	506.60291	
2	0.010	-144.02670	19.61413	-279.59515	270.15887	18.60547	-322.85083	-104.12939	14.27231	336.31760	286.10162	17.31380	311.12772	72.07981	1212.14941	-331.34665	-24.03463	582.90149	-430.79367	136.10622	582.80878	-441.02744	35.27882	586.72778	513.48987	193.36176	581.52661	506.60217	
3	0.020	-143.97528	19.55438	-279.62131	270.06860	18.54025	-322.87244	-104.14849	14.28527	336.32431	285.95911	17.23576	311.10977	72.05080	1212.15747	-331.32318	-24.01944	582.91211	-430.79602	136.08235	582.81256	-441.00433	35.26257	586.72101	513.50592	193.38542	581.49786	506.57156	
4	0.030	-143.97679	19.60013	-279.61362	270.12469	18.55795	-322.84702	-104.16457	14.27673	336.31641	285.94968	17.23632	311.11594	72.04997	1212.14734	-331.33868	-24.06410	582.91895	-430.79236	136.10901	582.80481	-441.03937	35.27204	586.69183	513.48669	193.36382	581.49707	506.61243	
5	0.040	-144.00427	19.59819	-279.57324	270.03900	18.50454	-322.85770	-104.12037	14.25622	336.31326	285.97696	17.20584	311.14307	72.04564	1212.12744	-331.33054	-24.00250	582.92639	-430.82892	136.06615	582.82025	-441.04840	35.28334	586.68054	513.50275	194.66776	581.09924	505.36356	
6	0.050	-144.04451	19.64840	-279.61981	269.96329	18.45578	-322.84772	-104.14197	14.26678	336.34174	285.97357	17.22931	311.10736	72.03153	1212.16003	-331.32748	-23.98836	582.89868	-430.79419	136.14595	582.82117	-441.01224	35.26096	586.67841	513.50323	193.20509	580.91217	505.40179	
7	0.060	-143.99033	19.58320	-279.60550	270.06714	18.52131	-322.85785	-104.13535	14.25087	336.33035	285.91196	17.21623	311.08453	72.06046	1212.15637	-331.33005	-24.05109	582.91870	-430.80438	136.04848	582.82483	-441.03223	35.28039	586.70453	513.50366	193.19598	580.93109	505.41034	
8	0.070	-143.97804	19.57204	-279.59207	270.12668	18.59387	-322.83447	-104.15302	14.28348	336.32831	286.02017	17.25932	311.12875	72.07382	1212.13818	-331.32272	-24.10468	582.97626	-430.80353	136.06514	582.85980	-441.03381	35.30000	586.70752	513.51343	193.24504	580.94055	505.39148	
9	0.080	-144.02814	19.63213	-279.60010	270.14038	18.55473	-322.85385	-104.15531	14.27305	336.33560	286.09692	17.27436	311.12918	72.03943	1212.17346	-331.32388	-24.05968	582.94678	-430.80890	136.06990	582.82550	-441.03177	35.30642	586.68896	513.52203	193.24997	580.93933	505.38013	
10	0.090	-144.01733	19.63053	-279.57187	270.03204	18.49408	-322.84805	-104.14830	14.29363	336.34082	285.98260	17.22562	311.10608	72.06133	1212.13684	-331.32629	-24.07051	582.96222	-430.82706	136.07672	582.85938	-441.01505	35.26499	586.69611	513.50653	193.16034	580.94598	505.41684	
11	0.100	-144.00827	19.58585	-279.59387	270.02182	18.48307	-322.80539	-104.12093	14.23153	336.31647	285.88535	17.21744	311.12253	72.01462	1212.12769	-331.30475	-24.09554	582.92865	-430.77811	136.13153	582.84052	-440.95190	35.29431	586.67206	513.53162	193.20357	580.93011	505.42432	
12	0.110	-143.98569	19.56781	-279.58267	270.00381	18.44816	-322.84866	-104.10828	14.23801	336.34955	285.99048	17.26756	311.12766	72.02422	1212.12390	-331.30496	-24.04032	582.89954	-430.76300	136.06544	582.82495	-441.00943	35.32887	586.66907	513.52582	193.20760	580.91089	505.40100	
13	0.120	-143.97249	19.57225	-279.59637	270.11041	18.53201	-322.84613	-104.17402	14.27318	336.30463	286.00003	17.22590	311.12894	72.02598	1212.14905	-331.31219	-24.07261	582.92865	-430.77869	136.07918	582.81982	-440.97604	35.29443	586.70264	513.50842	193.19876	580.93115	505.42072	
14	0.130	-143.96088	19.58697	-279.59250	270.13187	18.55885	-322.85919	-104.15359	14.26644	336.35239	286.07822	17.32066	311.15543	72.01480	1212.16699	-331.32462	-24.10143	582.93311	-430.77417	136.04210	582.85767	-440.98044	35.30617	586.73505	513.51874	193.23526	580.95203	505.40750	
15	0.140	-143.98360	19.60465	-279.60376	270.07831	18.59487	-322.85611	-104.18143	14.28191	336.31485	285.98596	17.24240	311.11920	72.02304	1212.15967	-331.30917	-24.12741	582.95111	-430.79404	136.05061	582.82043	-441.01981	35.29568	586.69275	513.51416	193.20482	580.93951	505.41949	
16	0.150	-144.07518	19.65995	-279.54608	269.97870	18.48259	-322.85156	-104.13222	14.26447	336.31454	285.84470	17.17733	311.08804	71.97858	1212.15649	-331.30533	-24.11933	582.96680	-430.78329	136.11850	582.81940	-441.00937	35.27210	586.70190	513.51630	193.18427	580.93341	505.42017	
17	0.160	-143.98492	19.57343	-279.57834	270.00162	18.50880	-322.88641	-104.15029	14.26033	336.30597	285.88712	17.20685	311.09299	71.97894	1212.17480	-331.30905	-24.11268	582.93237	-430.78259	136.05325	582.83582	-440.99609	35.27599	586.68262	513.51135	193.18880	580.92645	505.42899	
18	0.170	-144.00909	19.61059	-279.60315	270.04620	18.55448	-322.86264	-104.16861	14.26195	336.32614	285.92664	17.24506	311.13422	71.96602	1212.15344	-331.30258	-24.06014	582.89337	-430.77490	136.08786	582.81824	-441.01129	35.26089	586.69891	513.51910	193.21780	580.93713	505.40744	
19	0.180	-143.97316	19.60971	-279.60278	270.04074	18.55712	-322.83136	-104.19305	14.28098	336.31290	286.01926	17.27979	311.16016	72.00620	1212.16882	-331.30756	-24.03077	582.89838	-430.75928	136.18121	582.81287	-440.92587	35.27472	586.72394	513.51520	193.22247	580.95642	505.42538	
20	0.190	-143.94754	19.58387	-279.60446	270.13147	18.53274	-322.83359	-104.17327	14.28050	336.34326	286.03256	17.27961	311.11047	72.00361	1212.16772	-331.29956	-24.07332	582.91626	-430.78827	136.06932	582.81812	-440.97809	35.29858	586.70300	513.51459	193.20993	580.95428	505.41345	
21	0.200	-144.03082	19.64583	-279.56812	270.06573	18.55956	-322.84485	-104.13232	14.27173	336.31595	285.94766	17.23878	311.13113	72.00732	1212.15771	-331.30338	-24.10147	582.96704	-430.77237	136.10925	582.83148	-440.97595	35.24170	586.71143	513.51733	193.18173	580.93292	505.39685	
